<?xml version="1.0" standalone="no"?>
<!DOCTYPE svg PUBLIC "-//W3C//DTD SVG 20010904//EN"
 "http://www.w3.org/TR/2001/REC-SVG-20010904/DTD/svg10.dtd">
<svg version="1.0" xmlns="http://www.w3.org/2000/svg"
 width="600.000000pt" height="600.000000pt" viewBox="0 0 600.000000 600.000000"
 preserveAspectRatio="xMidYMid meet">
<metadata>
Created by potrace 1.14, written by Peter Selinger 2001-2017
</metadata>
<g transform="translate(0.000000,600.000000) scale(0.100000,-0.100000)"
fill="#000000" stroke="none">
<path d="M2907 4084 c-1 -1 -74 -5 -162 -9 -139 -6 -194 -9 -228 -14 -5 0 -7
-18 -5 -38 3 -33 7 -39 32 -43 17 -3 29 -9 29 -15 -18 -132 -42 -192 -81 -202
l-22 -5 26 -25 c23 -21 25 -29 20 -71 -15 -124 -29 -168 -57 -175 -16 -4 -19
-12 -15 -34 2 -15 5 -32 5 -36 1 -7 164 -1 210 8 9 2 19 4 24 4 4 1 7 16 7 35
0 26 -5 36 -20 41 -14 4 -20 15 -20 36 0 36 5 38 107 42 l81 4 6 -30 c7 -35 1
-47 -24 -47 -17 0 -20 -14 -11 -71 1 -3 64 -5 141 -5 l140 1 0 43 c0 23 -3 41
-7 41 -25 -4 -34 6 -47 54 -35 122 -35 154 -1 184 l24 22 -27 6 c-38 9 -58 40
-81 129 -20 80 -20 81 24 88 16 3 20 10 18 37 -1 18 -4 35 -7 38 -4 4 -74 11
-79 7z m-121 -330 l6 -31 -55 -2 -55 -1 19 82 c11 46 22 94 25 108 5 21 10 12
30 -50 13 -41 27 -89 30 -106z"/>
<path d="M3135 4082 c-3 -3 -5 -22 -5 -41 0 -33 3 -37 27 -39 44 -3 46 -11 44
-116 -1 -50 -5 -62 -29 -84 l-28 -26 24 -21 c23 -20 25 -27 23 -111 -3 -121
-7 -134 -42 -134 -27 0 -29 -3 -29 -38 l0 -38 83 -3 c114 -4 120 -4 140 -2 29
2 23 59 -9 73 l-26 12 7 131 c4 71 7 138 7 149 -2 37 10 5 58 -154 27 -89 50
-163 52 -165 2 -2 21 -5 43 -7 45 -3 30 -25 140 202 47 96 55 108 51 75 -31
-263 -36 -282 -71 -269 -10 4 -15 -1 -16 -15 -1 -12 -2 -29 -3 -38 -1 -18 33
-26 199 -47 28 -4 62 -9 78 -12 28 -6 28 -5 31 53 1 10 -9 19 -24 23 -28 7
-30 21 -17 120 11 83 25 116 54 129 l26 12 -23 24 c-20 21 -22 31 -16 82 11
106 18 118 58 117 34 -2 36 1 42 34 3 20 3 38 1 40 -10 10 -321 49 -330 41 -6
-4 -33 -56 -60 -114 -27 -58 -52 -105 -55 -105 -4 0 -21 51 -39 113 -18 61
-34 118 -36 125 -3 7 -22 12 -47 13 -53 0 -201 8 -245 13 -18 2 -35 1 -38 -2z"/>
<path d="M1966 3999 c-134 -41 -208 -135 -221 -280 -4 -41 -11 -59 -29 -75
l-25 -22 28 -5 c20 -4 33 -17 45 -44 38 -84 53 -107 91 -145 74 -74 169 -98
286 -73 155 32 239 116 255 254 l5 51 -43 -5 c-24 -3 -59 -7 -78 -10 -19 -3
-52 -7 -74 -10 -21 -2 -41 -7 -45 -10 -3 -4 -4 -34 -3 -67 5 -98 -22 -138 -75
-115 -23 10 -48 65 -73 155 -9 37 -9 48 5 68 8 13 23 24 33 24 10 1 5 6 -13
14 -46 20 -57 40 -62 113 -6 93 10 111 90 104 19 -1 40 -42 57 -109 l11 -43
42 5 c23 3 62 8 87 12 73 9 92 13 98 18 11 11 -18 82 -48 118 -68 82 -219 116
-344 77z"/>
<path d="M4024 3963 c-3 -16 -7 -34 -10 -40 -2 -8 6 -13 20 -13 41 0 50 -22
38 -96 -12 -75 -34 -114 -62 -114 -26 0 -25 -11 1 -34 18 -15 20 -25 16 -69
-3 -29 -9 -65 -12 -82 -4 -16 -8 -34 -9 -40 -10 -48 -19 -57 -47 -53 -26 4
-30 1 -38 -26 -4 -17 -7 -34 -5 -37 2 -4 32 -12 66 -18 35 -7 105 -21 156 -33
51 -11 94 -19 96 -17 2 2 6 18 9 36 6 28 3 32 -24 42 -25 9 -29 14 -24 38 3
15 7 42 11 58 17 93 36 138 64 148 l28 11 -21 28 c-19 25 -19 32 -8 85 7 32
17 71 23 86 10 26 15 28 44 22 31 -5 33 -4 43 32 12 43 13 40 -19 46 -14 3
-56 13 -95 22 -38 9 -81 19 -95 21 -14 2 -47 9 -73 14 -66 14 -66 14 -73 -17z"/>
<path d="M4619 3829 c-84 -12 -149 -59 -204 -145 -22 -34 -44 -56 -60 -60 -24
-6 -25 -8 -11 -23 12 -13 15 -39 14 -102 -2 -127 21 -190 90 -256 90 -86 252
-114 355 -61 52 26 96 70 141 141 34 52 46 61 84 60 9 -1 6 8 -8 22 -19 20
-22 36 -24 117 -1 83 -4 99 -31 147 -61 111 -210 180 -346 160z m145 -110 c24
-11 39 -48 33 -79 -10 -45 -30 -107 -39 -117 -6 -7 -19 -13 -29 -13 -18 0 -18
-2 -4 -24 15 -22 15 -29 1 -77 -36 -120 -74 -166 -123 -148 -48 17 -52 64 -16
191 13 50 19 58 45 63 l30 7 -22 20 c-13 13 -19 26 -15 37 4 9 14 35 22 58 16
47 54 93 77 93 8 0 26 -5 40 -11z"/>
<path d="M990 3724 c-74 -28 -237 -93 -272 -108 -36 -15 -37 -17 -26 -44 18
-41 21 -43 56 -33 31 9 33 8 51 -27 10 -20 26 -59 35 -86 17 -48 16 -51 -4
-78 l-21 -28 29 0 c37 0 52 -18 91 -112 37 -92 38 -103 6 -124 -23 -15 -24
-17 -9 -45 8 -16 16 -29 19 -29 2 0 55 21 117 46 62 26 156 61 208 80 52 18
107 37 122 43 l27 10 -37 109 -36 109 -60 -20 c-34 -11 -62 -21 -63 -21 -1 -1
4 -26 12 -56 8 -30 15 -63 15 -72 0 -21 -63 -60 -83 -52 -9 3 -32 48 -52 100
-36 90 -36 94 -21 125 20 40 20 39 -1 39 -19 1 -53 23 -53 35 0 4 -6 21 -14
38 -35 80 -38 101 -16 119 11 9 26 18 32 20 9 3 8 14 -3 40 l-14 36 -35 -14z"/>
<path d="M5168 3616 c-16 -33 -16 -34 10 -53 l26 -20 -28 -65 c-31 -74 -53
-99 -90 -102 -21 -1 -23 -3 -11 -16 22 -24 23 -72 3 -117 -62 -143 -55 -134
-83 -123 -23 9 -26 6 -40 -27 -8 -20 -14 -37 -13 -38 2 -1 30 -13 64 -28 33
-15 86 -38 117 -52 l57 -25 15 30 c19 36 19 50 1 50 -8 0 -18 4 -21 10 -6 10
78 216 96 235 9 9 10 4 13 -228 2 -105 6 -141 17 -151 8 -7 54 -34 104 -60
104 -55 88 -62 167 82 55 103 81 132 115 132 26 0 28 7 13 46 -9 23 -6 37 22
92 40 78 48 85 81 73 23 -9 28 -6 46 25 24 40 25 44 11 44 -6 0 -65 29 -131
65 -128 69 -140 71 -153 19 -5 -19 -1 -30 16 -44 l23 -18 -59 -117 c-32 -63
-60 -114 -62 -113 -1 2 -5 93 -8 202 -3 109 -7 200 -8 201 -7 4 -286 125 -290
125 -2 0 -12 -15 -20 -34z"/>
<path d="M465 3495 c-93 -45 -207 -104 -252 -129 l-82 -47 16 -35 c12 -25 21
-33 32 -28 56 24 64 19 104 -60 38 -74 38 -76 23 -107 -9 -18 -16 -33 -16 -33
0 -1 14 -1 31 -2 39 -2 48 -12 100 -108 l42 -79 -25 -22 c-25 -21 -25 -22 -9
-54 l17 -32 69 37 c126 67 365 184 376 184 6 0 9 4 7 9 -30 77 -86 194 -94
198 -6 2 -34 -6 -63 -19 -57 -25 -57 -25 -27 -105 9 -23 13 -49 10 -58 -7 -17
-54 -45 -76 -45 -8 0 -30 34 -51 75 l-37 75 55 27 c30 15 55 32 55 38 0 15
-48 115 -55 115 -3 0 -28 -11 -56 -25 -27 -14 -55 -23 -60 -19 -16 9 -69 126
-63 136 9 15 84 49 94 43 5 -3 22 -27 37 -53 14 -26 28 -49 30 -51 3 -5 100
37 120 51 8 7 8 16 -2 36 -7 15 -25 56 -40 92 -15 36 -30 68 -33 72 -4 4 -83
-31 -177 -77z"/>
<path d="M3064 2381 c-68 -17 -119 -73 -144 -158 -7 -24 -21 -45 -34 -51 -16
-8 -17 -11 -4 -11 16 -1 24 -16 32 -58 27 -132 99 -190 225 -181 97 7 159 61
175 155 l6 30 -77 -1 -77 -1 -10 -54 c-22 -109 -76 -91 -83 27 -5 65 -4 70 17
77 l22 7 -22 15 c-20 14 -22 23 -18 75 5 71 25 93 61 66 15 -12 24 -45 26 -93
1 -19 7 -21 71 -20 38 1 72 4 75 6 2 3 0 22 -6 42 -12 43 -62 105 -96 118 -35
13 -105 18 -139 10z"/>
<path d="M4562 2364 c-50 -23 -81 -62 -103 -129 -7 -22 -19 -46 -25 -54 -10
-11 -10 -18 1 -35 7 -12 16 -41 19 -66 9 -58 50 -118 101 -144 48 -25 137 -26
183 -2 53 27 102 111 102 172 0 13 8 32 19 43 17 17 17 19 0 29 -9 6 -20 26
-24 44 -18 81 -72 141 -143 156 -62 14 -75 13 -130 -14z m114 -61 c20 -27 18
-122 -2 -130 -15 -5 -15 -7 0 -15 12 -7 16 -25 16 -76 -1 -69 -14 -102 -42
-102 -27 0 -41 29 -46 96 -4 54 -2 67 13 78 16 12 16 13 1 19 -19 8 -22 67 -5
116 12 35 43 42 65 14z"/>
<path d="M1080 2354 c0 -17 6 -28 20 -31 11 -3 20 -10 21 -17 7 -82 5 -98 -12
-121 -18 -22 -18 -24 -3 -33 13 -7 18 -25 19 -72 3 -79 -3 -100 -27 -100 -15
0 -19 -6 -16 -27 3 -26 4 -26 81 -27 l77 -1 0 28 c0 17 -5 27 -15 27 -17 0
-17 -4 -19 117 -1 51 1 87 6 81 4 -7 22 -57 40 -111 26 -78 37 -99 55 -103 12
-3 26 -3 32 0 5 4 24 54 42 111 18 58 35 105 38 105 3 0 5 -30 4 -67 -1 -38
-2 -83 -2 -100 -1 -22 -6 -33 -16 -33 -10 0 -15 -10 -15 -27 l0 -28 92 1 c51
1 98 2 105 3 21 2 10 43 -14 52 -21 8 -23 15 -23 79 0 53 4 74 18 88 16 16 16
18 0 35 -13 12 -18 33 -18 76 0 54 2 60 22 63 17 2 23 10 23 28 0 25 -1 25
-101 28 l-101 3 -27 -87 c-15 -47 -29 -84 -30 -83 -2 2 -16 41 -31 87 l-28 82
-98 0 -99 0 0 -26z"/>
<path d="M1675 2352 c0 -14 7 -28 15 -30 8 -3 18 -10 22 -16 14 -20 8 -101 -8
-124 -15 -21 -15 -25 0 -41 13 -14 16 -34 14 -87 -3 -62 -5 -69 -26 -74 -27
-6 -29 -9 -15 -35 10 -19 20 -20 160 -18 81 0 153 2 158 2 7 1 11 31 10 79 l0
77 -40 0 c-39 0 -40 -1 -43 -40 -4 -50 -18 -67 -51 -63 -25 3 -26 6 -26 63 l1
60 32 1 c18 1 36 2 41 3 5 0 10 16 9 34 0 57 -5 65 -42 60 -43 -4 -45 4 -37
102 1 16 37 20 59 6 8 -4 13 -14 12 -22 -1 -8 -2 -26 -1 -41 1 -25 4 -27 44
-25 l42 2 3 77 3 77 -169 -1 -169 -1 2 -25z"/>
<path d="M2090 2350 c0 -19 5 -30 14 -30 18 0 79 -117 72 -137 -4 -8 3 -22 15
-32 l20 -16 -38 -75 c-28 -54 -45 -76 -61 -78 -15 -2 -22 -10 -22 -27 0 -29 8
-31 100 -30 71 1 75 2 78 24 2 13 -2 27 -8 31 -9 6 -8 17 6 45 l17 37 20 -38
c13 -26 16 -39 8 -42 -15 -5 -14 -52 2 -53 20 -1 160 -1 185 0 30 1 29 34 -1
54 -24 16 -87 132 -87 161 0 9 6 16 13 16 7 1 5 6 -5 14 -10 7 -18 18 -18 25
0 23 56 114 73 119 9 2 18 8 18 13 6 44 7 44 -77 47 -80 3 -82 2 -86 -22 -3
-14 -1 -29 4 -34 10 -10 -5 -56 -20 -66 -14 -9 -37 51 -25 67 5 6 9 21 9 32
-1 18 -9 20 -103 23 l-103 3 0 -31z"/>
<path d="M2597 2373 c-16 -15 -6 -43 17 -49 22 -5 24 -11 25 -65 0 -46 -4 -64
-18 -76 -18 -15 -18 -16 1 -35 16 -16 18 -31 16 -91 -3 -66 -5 -72 -25 -75
-17 -3 -22 -9 -21 -27 1 -14 7 -26 13 -27 9 -3 154 -2 196 1 24 2 13 51 -11
51 -12 0 -20 9 -22 23 -6 43 8 148 20 156 10 6 10 11 -3 21 -11 9 -15 31 -15
76 0 55 2 64 18 64 26 0 30 6 24 35 -4 25 -6 25 -106 25 -57 0 -106 -3 -109
-7z"/>
<path d="M3469 2373 c0 -5 -2 -16 -4 -27 -2 -12 4 -20 16 -23 16 -5 19 -12 14
-40 -8 -50 -31 -99 -52 -112 -14 -8 -15 -13 -5 -19 7 -5 14 -17 14 -28 3 -35
-24 -119 -44 -136 -11 -10 -18 -27 -16 -40 3 -21 7 -23 78 -22 74 1 75 1 78
27 2 15 -1 27 -7 27 -6 0 -11 11 -11 24 0 21 6 25 33 28 17 2 47 1 65 -1 26
-3 32 -8 32 -27 0 -15 -6 -24 -15 -24 -10 0 -15 -10 -15 -27 l0 -28 95 0 95 0
0 28 c0 15 -4 27 -10 27 -14 0 -28 30 -35 80 -4 25 -8 47 -10 50 -2 3 3 16 10
30 11 21 10 26 -10 42 -13 10 -26 35 -30 55 -4 21 -9 48 -11 61 -3 16 0 22 14
22 14 0 18 8 18 30 l0 30 -143 0 c-79 0 -143 -3 -144 -7z m145 -168 c4 -22 9
-48 12 -57 4 -15 -1 -18 -31 -18 -30 0 -35 3 -32 18 3 9 11 41 17 71 14 58 23
54 34 -14z"/>
<path d="M3900 2349 c0 -18 6 -28 19 -32 27 -7 27 -111 -1 -137 -19 -17 -19
-18 -1 -28 15 -9 18 -25 20 -87 2 -70 0 -78 -18 -82 -15 -4 -19 -13 -17 -31 3
-26 4 -26 83 -25 44 1 83 2 86 2 16 2 5 50 -12 54 -17 5 -19 15 -19 93 0 48 2
85 4 83 3 -2 26 -51 51 -109 26 -58 53 -110 60 -115 7 -6 43 -10 81 -9 l69 1
3 97 c2 62 8 106 17 119 12 19 12 25 -1 41 -8 12 -14 43 -14 74 0 44 3 55 18
59 13 3 18 13 17 31 -1 27 -1 27 -88 29 l-87 2 0 -30 c0 -18 5 -29 14 -29 21
0 26 -23 25 -113 l0 -82 -20 40 c-10 22 -37 79 -59 127 l-40 87 -95 -2 -95 -1
0 -27z"/>
</g>
</svg>
