<?xml version="1.0" encoding="UTF-8" standalone="no"?>
<!DOCTYPE svg PUBLIC "-//W3C//DTD SVG 1.1//EN" "http://www.w3.org/Graphics/SVG/1.1/DTD/svg11.dtd">
<svg width="100%" height="100%" viewBox="0 0 1570 590" version="1.1" xmlns="http://www.w3.org/2000/svg" xmlns:xlink="http://www.w3.org/1999/xlink" xml:space="preserve" xmlns:serif="http://www.serif.com/" style="fill-rule:evenodd;clip-rule:evenodd;stroke-linejoin:round;stroke-miterlimit:2;">
    <g transform="matrix(3.97431,0,0,3.97431,-1025.87,-1799.14)">
        <g transform="matrix(1,0,0,1,266.711,525.771)">
            <path d="M0,-19.912C10.926,-26.141 22.084,-31.788 33.429,-36.854C33.457,-36.868 33.479,-36.86 33.491,-36.836C35.456,-32.432 37.421,-28.029 39.386,-23.625C39.397,-23.598 39.388,-23.581 39.359,-23.568C36.525,-22.302 33.705,-20.999 30.896,-19.659C30.839,-19.632 30.802,-19.63 30.792,-19.655C28.446,-24.125 27.223,-26.335 27.135,-26.292C26.396,-27.012 25.472,-27.11 24.385,-26.58C23.399,-26.1 22.414,-25.615 21.432,-25.126C20.051,-24.439 19.587,-23.656 20.021,-22.792C21.433,-19.964 22.842,-17.137 24.253,-14.311C26.838,-15.618 29.437,-16.893 32.045,-18.134C32.074,-18.148 32.103,-18.162 32.131,-18.175C33.405,-15.421 34.681,-12.667 35.957,-9.914C35.929,-9.9 35.902,-9.887 35.874,-9.874C33.331,-8.662 30.797,-7.419 28.276,-6.143C28.284,-6.131 28.289,-6.118 28.295,-6.106C29.033,-4.647 30.615,-1.484 33.039,3.374C33.302,3.894 33.774,4.122 34.446,4.062C34.615,4.005 34.761,3.951 34.867,3.897C35.524,3.567 36.182,3.241 36.84,2.916C38.368,2.16 39.184,1.327 39.265,0.393C39.335,-0.5 39.25,-1.212 38.997,-1.736C38.198,-4.242 37.403,-6.349 36.589,-8.05C36.597,-8.069 36.605,-8.088 36.612,-8.107C39.225,-9.353 41.85,-10.565 44.486,-11.743C44.513,-11.754 44.534,-11.748 44.544,-11.724C46.568,-7.194 48.59,-2.665 50.614,1.865C50.625,1.891 50.618,1.909 50.59,1.921C40.548,6.41 30.67,11.411 20.998,16.925C20.946,16.954 20.91,16.956 20.9,16.933C20.09,15.513 19.28,14.093 18.47,12.672C18.469,12.609 18.483,12.57 18.507,12.555C19.02,12.263 19.532,11.973 20.045,11.684C21.229,11.017 21.777,10.46 21.697,9.998C21.736,9.503 21.525,8.842 21.068,8.018C19.606,5.375 18.144,2.731 16.682,0.088C15.973,-1.198 15.202,-1.975 14.369,-2.242C13.429,-2.7 12.112,-2.761 10.418,-2.404C10.384,-2.464 10.35,-2.525 10.315,-2.585C11.586,-3.944 12.26,-5.081 12.329,-6.007C12.411,-7.035 12.255,-7.915 11.853,-8.643C10.632,-10.849 9.412,-13.056 8.191,-15.263C7.573,-16.378 6.999,-16.947 6.459,-16.965C6.038,-16.983 5.476,-16.799 4.787,-16.412C4.082,-16.016 3.379,-15.618 2.676,-15.217C2.615,-15.185 2.587,-15.18 2.569,-15.204C1.69,-16.745 0.812,-18.286 -0.067,-19.826C-0.053,-19.867 -0.03,-19.895 0,-19.912" style="fill:rgb(255,216,0);fill-rule:nonzero;"/>
        </g>
        <g transform="matrix(1,0,0,1,303,517.481)">
            <path d="M0,-30.008C7.441,-33.256 14.963,-36.255 22.549,-39.006C22.613,-39.029 22.648,-39.028 22.657,-39.001C23.252,-37.36 23.845,-35.718 24.44,-34.077C24.449,-34.05 24.424,-34.026 24.363,-34.004C23.57,-33.717 22.779,-33.427 21.988,-33.134C21.046,-32.784 20.517,-32.349 20.399,-31.831C20.313,-31.326 20.433,-30.643 20.754,-29.788C21.737,-27.182 22.72,-24.576 23.703,-21.97C24.016,-21.318 24.642,-20.769 25.579,-20.321C26.721,-19.949 27.597,-19.815 28.224,-19.925C28.395,-19.958 28.564,-19.99 28.734,-20.023C28.759,-19.958 28.782,-19.893 28.806,-19.828C28.256,-19.51 27.729,-19.006 27.224,-18.316C26.562,-17.42 26.238,-16.425 26.255,-15.335C26.29,-15.169 26.307,-15.058 26.329,-15.007C27.229,-12.622 28.128,-10.236 29.028,-7.85C29.052,-7.829 29.077,-7.809 29.1,-7.789C29.599,-6.466 30.098,-5.143 30.596,-3.821C30.884,-3.069 31.309,-2.639 31.891,-2.531C32.163,-2.483 32.478,-2.53 32.839,-2.663C33.437,-2.885 34.035,-3.105 34.633,-3.324C36.468,-3.993 37.388,-4.979 37.397,-6.305C37.462,-6.74 37.333,-7.604 37.005,-8.899C36.805,-10.005 36.323,-11.79 35.559,-14.252C35.531,-14.33 35.504,-14.408 35.476,-14.487C35.486,-14.505 35.497,-14.523 35.505,-14.541C38.239,-15.499 40.981,-16.422 43.732,-17.31C43.789,-17.328 43.822,-17.324 43.832,-17.299C45.376,-12.511 46.921,-7.724 48.465,-2.937C48.473,-2.911 48.451,-2.89 48.395,-2.871C37.795,0.553 27.324,4.513 17.023,9.009C16.998,9.021 16.975,9.014 16.966,8.988C16.335,7.541 15.702,6.093 15.07,4.645C15.061,4.62 15.065,4.602 15.095,4.589C15.627,4.357 16.16,4.125 16.693,3.896C17.978,3.343 18.621,2.833 18.612,2.355C18.722,1.919 18.502,1.048 17.952,-0.254C16.78,-3.038 15.608,-5.823 14.438,-8.607C13.929,-9.808 13.336,-10.625 12.648,-11.055C11.738,-11.693 10.504,-11.923 8.947,-11.732C8.78,-11.72 8.635,-11.702 8.509,-11.678C8.476,-11.754 8.443,-11.831 8.41,-11.906C8.779,-12.158 9.258,-12.591 9.847,-13.207C10.592,-14.098 10.952,-15.062 10.923,-16.104C10.869,-16.802 10.772,-17.317 10.632,-17.65C9.729,-19.796 8.827,-21.942 7.924,-24.087C7.235,-25.722 6.599,-26.522 6.014,-26.485C5.639,-26.537 5.137,-26.429 4.506,-26.16C3.713,-25.82 2.919,-25.477 2.127,-25.131C2.095,-25.117 2.079,-25.125 2.066,-25.15C1.368,-26.75 0.669,-28.35 -0.029,-29.95C-0.04,-29.976 -0.033,-29.994 0,-30.008" style="fill:rgb(255,216,0);fill-rule:nonzero;"/>
        </g>
        <g transform="matrix(1,0,0,1,389.603,503.819)">
            <path d="M0,-43.193C0.498,-43.28 0.996,-43.367 1.493,-43.451C5.185,-44.083 8.922,-43.863 12.635,-42.794C13.794,-42.455 15.113,-41.853 16.592,-40.986C18.005,-40.083 19.045,-39.289 19.704,-38.618C22.245,-36.001 23.679,-32.94 24.083,-29.471C24.069,-29.456 24.055,-29.44 24.041,-29.424C18.979,-28.84 13.927,-28.149 8.888,-27.353C8.857,-27.347 8.819,-27.384 8.776,-27.461C8.353,-30.143 7.584,-32.898 6.452,-35.72C6.143,-36.429 5.764,-36.899 5.3,-37.134C4.231,-37.745 3.07,-37.945 1.837,-37.731C-0.028,-37.409 -1.131,-36.728 -1.465,-35.709C-1.685,-35.134 -1.838,-34.472 -1.927,-33.722C-2.055,-33.191 -1.838,-30.878 -1.264,-26.784C-1.261,-26.771 -1.258,-26.757 -1.256,-26.744C-1.087,-25.844 -0.632,-25.015 0.109,-24.248C0.897,-23.549 1.947,-23.148 3.25,-23.039C3.537,-23.007 3.805,-22.995 4.052,-23.011C4.062,-22.956 4.071,-22.902 4.081,-22.847C3.04,-22.554 2.109,-21.964 1.3,-21.086C0.624,-20.174 0.273,-19.388 0.239,-18.734C0.25,-18.679 0.246,-18.622 0.225,-18.563C0.484,-17.172 1.382,-14.113 2.893,-9.375C3.27,-8.485 3.639,-7.78 4.004,-7.254C4.797,-6.188 5.608,-5.585 6.434,-5.45C6.893,-5.363 7.413,-5.369 7.992,-5.467C9.839,-5.783 10.773,-8.106 10.835,-12.467C10.805,-14.342 10.646,-16.238 10.343,-18.155C10.358,-18.158 10.374,-18.16 10.389,-18.162C15.674,-18.997 20.973,-19.713 26.283,-20.308C26.343,-20.315 26.374,-20.304 26.378,-20.277C26.382,-20.235 26.387,-20.194 26.392,-20.153C26.707,-17.343 26.208,-14.306 24.963,-11.033C23.604,-7.967 21.369,-5.418 18.274,-3.329C15.674,-1.646 12.451,-0.497 8.563,0.172C4.391,0.89 0.534,0.62 -3.092,-0.668C-3.89,-0.927 -5.006,-1.501 -6.455,-2.379C-8.6,-3.844 -10.454,-5.671 -11.999,-7.876C-12.544,-8.66 -13.186,-9.766 -13.918,-11.189C-14.771,-13.125 -15.304,-14.537 -15.514,-15.427C-16.04,-16.329 -16.708,-16.955 -17.518,-17.304C-18.505,-17.725 -19.525,-17.877 -20.583,-17.76C-20.595,-17.813 -20.609,-17.867 -20.622,-17.921C-19.215,-18.411 -18.236,-18.985 -17.695,-19.655C-17.089,-20.452 -16.791,-20.963 -16.811,-21.186C-16.685,-21.329 -16.645,-21.78 -16.693,-22.537C-16.68,-24.959 -16.489,-26.878 -16.128,-28.296C-15.867,-29.436 -15.443,-30.667 -14.853,-31.99C-13.004,-35.917 -10.072,-38.996 -6.079,-41.146C-3.927,-42.181 -1.893,-42.861 0,-43.193" style="fill:rgb(255,216,0);fill-rule:nonzero;"/>
        </g>
        <g transform="matrix(1,0,0,1,423.279,498.789)">
            <path d="M0,-41.651C10.597,-42.55 21.224,-43.006 31.851,-43.018C31.882,-43.018 31.898,-43.004 31.899,-42.977C31.901,-41.203 31.903,-39.43 31.905,-37.656C31.906,-37.6 31.887,-37.573 31.857,-37.573C31.106,-37.572 30.356,-37.569 29.605,-37.563C28.515,-37.556 27.979,-37.202 27.989,-36.509C28.855,-33.235 29.699,-29.958 30.521,-26.678C30.984,-25.737 31.628,-24.922 32.427,-24.229C33.6,-23.397 34.896,-22.974 36.34,-22.959L36.386,-22.959C36.385,-22.875 36.384,-22.792 36.383,-22.709C35,-22.502 34.034,-21.869 33.478,-20.818C33.021,-19.962 32.787,-18.962 32.787,-17.826C32.788,-17.772 32.757,-17.702 32.696,-17.619C33.986,-12.074 34.724,-8.825 34.979,-7.881C35.264,-6.907 35.569,-6.299 35.887,-6.044C36.321,-5.734 36.816,-5.576 37.373,-5.568C37.694,-5.563 38.015,-5.558 38.336,-5.552C38.366,-5.552 38.378,-5.537 38.38,-5.51C38.351,-3.861 38.322,-2.212 38.292,-0.564C38.293,-0.536 38.278,-0.522 38.248,-0.523C32.044,-0.632 25.836,-0.571 19.636,-0.339C19.606,-0.338 19.59,-0.351 19.59,-0.379C19.528,-2.027 19.468,-3.675 19.405,-5.323C19.404,-5.35 19.416,-5.365 19.448,-5.366C19.9,-5.383 20.353,-5.399 20.805,-5.414C21.564,-5.44 22.057,-5.578 22.285,-5.834C22.429,-6.006 22.493,-6.228 22.486,-6.506C22.482,-6.602 22.479,-6.7 22.477,-6.797C22.455,-7.544 22.185,-8.756 21.662,-10.432C17.691,-10.311 13.721,-10.123 9.755,-9.866C9.693,-9.863 9.614,-9.537 9.507,-8.892C9.239,-7.597 9.107,-6.893 9.115,-6.783C9.118,-6.741 9.121,-6.7 9.124,-6.658C9.182,-5.831 9.432,-5.317 9.886,-5.126C10.246,-4.983 10.6,-4.922 10.953,-4.944C11.187,-4.959 11.42,-4.973 11.653,-4.987C11.68,-4.988 11.7,-4.974 11.699,-4.948C11.797,-3.302 11.897,-1.655 11.996,-0.01C11.997,0.019 11.982,0.033 11.955,0.034C6.65,0.353 1.351,0.796 -3.938,1.364C-3.963,1.367 -3.981,1.356 -3.986,1.328C-4.163,-0.312 -4.339,-1.951 -4.516,-3.591C-4.519,-3.617 -4.506,-3.635 -4.476,-3.637C-4.127,-3.675 -3.777,-3.712 -3.428,-3.748C-2.09,-3.887 -1.261,-4.704 -0.933,-6.213C-0.686,-7.072 -0.104,-10.677 0.95,-17.031C0.847,-18.191 0.344,-19.232 -0.57,-20.151C-1.43,-20.796 -2.137,-21.131 -2.698,-21.161C-2.705,-21.23 -2.712,-21.299 -2.718,-21.368C-1.799,-21.457 -0.848,-21.823 0.146,-22.469C0.865,-23.089 1.387,-23.719 1.702,-24.356C2.323,-25.466 2.645,-26.104 2.664,-26.272C3.808,-32.175 4.432,-35.234 4.412,-35.455C4.41,-35.469 4.41,-35.483 4.409,-35.497C4.358,-36.187 3.856,-36.498 2.897,-36.424C2.085,-36.36 1.273,-36.294 0.461,-36.225C0.429,-36.223 0.411,-36.249 0.406,-36.304C0.256,-38.071 0.105,-39.838 -0.045,-41.605C-0.048,-41.633 -0.035,-41.648 0,-41.651M14.607,-33.328C14.537,-32.992 13.427,-28.268 11.534,-19.138C14.011,-19.282 16.489,-19.4 18.966,-19.492C18.533,-21.083 17.254,-25.711 14.938,-33.344C14.828,-33.339 14.717,-33.334 14.607,-33.328" style="fill:rgb(255,216,0);fill-rule:nonzero;"/>
        </g>
        <g transform="matrix(1,0,0,1,464.439,503.199)">
            <path d="M0,-47.534C7.163,-47.368 14.322,-47 21.468,-46.43C21.5,-46.428 21.974,-44.945 22.851,-41.979C24.056,-37.956 25.214,-33.928 26.323,-29.894C26.508,-29.877 26.694,-29.859 26.879,-29.84C31.441,-39.582 34.082,-44.655 34.355,-45.183C41.71,-44.346 49.045,-43.294 56.352,-42.027C56.383,-42.021 56.397,-41.991 56.386,-41.936C56.087,-40.216 55.789,-38.496 55.49,-36.776C55.485,-36.748 55.466,-36.737 55.435,-36.743C54.614,-36.886 53.791,-37.025 52.969,-37.162C51.926,-37.335 51.239,-37.206 50.912,-36.783C50.59,-36.385 50.362,-35.777 50.23,-34.956C49.835,-32.493 49.44,-30.03 49.046,-27.567C48.877,-26.5 49.115,-25.436 49.758,-24.378C50.372,-23.547 51.175,-22.923 52.167,-22.5C52.149,-22.418 52.149,-22.305 52.156,-22.164C50.629,-22.004 49.47,-21.477 48.673,-20.596C48.093,-20.072 47.687,-19.084 47.455,-17.634C46.948,-14.473 46.443,-11.312 45.936,-8.152C45.719,-6.811 45.865,-5.96 46.373,-5.597C46.578,-5.394 47.216,-5.208 48.283,-5.028C48.817,-4.938 49.352,-4.846 49.886,-4.754C49.915,-4.749 49.927,-4.731 49.922,-4.705C49.653,-3.149 49.382,-1.592 49.112,-0.036C49.108,-0.01 49.088,0.002 49.062,-0.003C42.386,-1.16 35.686,-2.115 28.966,-2.87C28.907,-2.876 28.881,-2.892 28.884,-2.92C29.06,-4.49 29.235,-6.06 29.412,-7.63C29.415,-7.658 29.445,-7.667 29.504,-7.661C29.722,-7.637 29.939,-7.612 30.158,-7.587C31.493,-7.434 32.276,-7.533 32.493,-7.899C32.85,-8.162 33.112,-8.982 33.281,-10.358C33.979,-16.052 34.676,-21.746 35.373,-27.44C35.265,-27.453 35.158,-27.467 35.05,-27.48C28.602,-14.494 25.576,-7.502 25.18,-6.741C23.297,-6.929 21.413,-7.101 19.526,-7.258C19.498,-7.26 19.317,-7.915 18.985,-9.221C17.112,-15.99 15.099,-22.745 12.946,-29.482C12.914,-29.484 12.792,-29.519 12.58,-29.587C12.234,-23.722 11.888,-17.857 11.542,-11.992C11.464,-10.664 11.678,-9.833 12.186,-9.497C12.434,-9.259 13.098,-9.108 14.177,-9.035C14.41,-9.019 14.644,-9.004 14.876,-8.987C14.906,-8.986 14.92,-8.97 14.917,-8.943C14.807,-7.367 14.698,-5.791 14.589,-4.215C14.587,-4.187 14.572,-4.176 14.543,-4.177C9.369,-4.535 4.19,-4.774 -0.992,-4.894C-1.021,-4.895 -1.035,-4.909 -1.034,-4.937C-0.997,-6.516 -0.961,-8.095 -0.924,-9.674C-0.924,-9.702 -0.909,-9.716 -0.879,-9.715C-0.339,-9.702 0.2,-9.689 0.741,-9.673C2.055,-9.637 2.833,-9.788 3.081,-10.141C3.417,-10.573 3.605,-11.286 3.641,-12.284C3.769,-15.802 3.896,-19.319 4.022,-22.836C4.062,-23.944 3.571,-25.003 2.53,-26.007C1.875,-26.609 1.104,-27.033 0.22,-27.278C0.222,-27.361 0.224,-27.444 0.226,-27.527C0.596,-27.657 1.081,-27.823 1.67,-28.029C2.825,-28.521 3.607,-29.299 4.015,-30.366C4.225,-30.912 4.327,-31.353 4.342,-31.685C4.434,-34.247 4.528,-36.808 4.62,-39.37C4.67,-40.727 4.394,-41.542 3.796,-41.812C3.45,-41.99 2.975,-42.088 2.368,-42.107C1.537,-42.132 0.707,-42.154 -0.124,-42.173C-0.161,-42.174 -0.17,-42.188 -0.171,-42.215C-0.131,-43.961 -0.09,-45.706 -0.05,-47.452C-0.045,-47.508 -0.034,-47.536 0,-47.534" style="fill:rgb(255,216,0);fill-rule:nonzero;"/>
        </g>
        <g transform="matrix(1,0,0,1,523.498,508.084)">
            <path d="M0,-46.391C7.875,-44.967 15.715,-43.294 23.509,-41.37C23.54,-41.362 23.557,-41.343 23.547,-41.318C23.128,-39.623 22.711,-37.928 22.292,-36.233C22.285,-36.205 22.267,-36.196 22.234,-36.204C21.407,-36.408 20.578,-36.61 19.749,-36.809C18.81,-37.034 18.152,-36.974 17.776,-36.635C17.394,-36.269 17.111,-35.681 16.919,-34.871C16.343,-32.402 15.768,-29.932 15.192,-27.463C14.977,-26.26 15.096,-25.266 15.548,-24.475C15.967,-23.693 16.74,-22.983 17.856,-22.34C17.834,-22.246 17.811,-22.152 17.787,-22.057C17.033,-21.956 16.309,-21.802 15.627,-21.594C14.515,-21.175 13.763,-20.325 13.373,-19.051C13.229,-18.828 13.137,-18.649 13.106,-18.515C12.31,-15.101 11.515,-11.686 10.719,-8.272C10.416,-6.976 10.538,-6.137 11.082,-5.753C11.271,-5.537 11.856,-5.315 12.825,-5.08C13.369,-4.949 13.911,-4.817 14.453,-4.683C14.48,-4.676 14.492,-4.659 14.486,-4.632C14.107,-3.099 13.729,-1.565 13.35,-0.031C13.342,-0.005 13.325,0.006 13.298,-0.001C6.375,-1.71 -0.59,-3.196 -7.585,-4.461C-7.619,-4.466 -7.627,-4.482 -7.621,-4.51C-7.34,-6.064 -7.059,-7.619 -6.778,-9.173C-6.772,-9.2 -6.757,-9.21 -6.728,-9.206C-6.165,-9.105 -5.604,-9.001 -5.041,-8.897C-3.714,-8.65 -2.926,-8.708 -2.676,-9.084C-2.322,-9.354 -2.007,-10.224 -1.719,-11.693C-1.146,-14.645 -0.573,-17.597 0.001,-20.549C0.295,-22.045 0.188,-23.194 -0.313,-23.996C-0.703,-24.889 -1.648,-25.689 -3.149,-26.387C-3.129,-26.496 -3.11,-26.605 -3.09,-26.714C-1.81,-26.706 -0.822,-26.929 -0.136,-27.39C0.559,-27.71 1.144,-28.387 1.629,-29.422C1.759,-29.763 1.841,-30.017 1.873,-30.179C2.306,-32.41 2.739,-34.641 3.172,-36.872C3.516,-38.64 3.493,-39.691 3.099,-40.019C2.798,-40.33 2.284,-40.557 1.561,-40.693C0.726,-40.85 -0.11,-41.004 -0.947,-41.155C-0.981,-41.162 -0.989,-41.175 -0.987,-41.204C-0.676,-42.922 -0.366,-44.64 -0.055,-46.358C-0.05,-46.385 -0.029,-46.397 0,-46.391" style="fill:rgb(255,216,0);fill-rule:nonzero;"/>
        </g>
        <g transform="matrix(1,0,0,1,572.207,515.794)">
            <path d="M0,-42.677C0.391,-42.552 0.782,-42.426 1.172,-42.299C4.014,-41.378 6.831,-39.715 9.56,-37.315C10.29,-36.619 11.013,-35.786 11.741,-34.817C12.214,-34.116 12.691,-33.324 13.162,-32.442C13.721,-31.233 14.151,-30.156 14.454,-29.215C14.853,-27.794 15.082,-26.58 15.145,-25.578C15.301,-24.096 15.207,-22.068 14.86,-19.5C14.666,-18.742 14.649,-18.125 14.802,-17.65C15.019,-16.645 15.786,-15.646 17.105,-14.646C17.449,-14.418 17.67,-14.285 17.755,-14.252C17.729,-14.187 17.704,-14.123 17.678,-14.059C16.927,-14.207 16.348,-14.261 15.928,-14.218C14.678,-14.115 13.681,-13.652 12.939,-12.844C12.909,-12.856 12.564,-12.186 11.912,-10.834C11.023,-9.217 10.243,-7.958 9.571,-7.058C8.25,-5.398 7.058,-4.132 5.995,-3.261C2.671,-0.399 -1.253,1.024 -5.807,1.088C-8.363,1.055 -10.756,0.679 -13.018,-0.051C-17.492,-1.492 -21.041,-3.904 -23.771,-7.384C-24.688,-8.766 -25.323,-9.846 -25.658,-10.627C-26.269,-12.086 -26.722,-13.645 -27.022,-15.302C-27.251,-16.74 -27.372,-18.087 -27.35,-19.344C-27.396,-20.244 -27.284,-21.69 -27.018,-23.682C-26.992,-23.789 -26.999,-23.877 -27.044,-23.947C-27.041,-23.96 -27.037,-23.973 -27.033,-23.987C-27.013,-24.095 -26.963,-24.184 -26.915,-24.257C-26.452,-26.282 -27.195,-27.941 -29.176,-29.208C-29.133,-29.312 -29.091,-29.415 -29.05,-29.519C-28.228,-29.486 -27.414,-29.622 -26.597,-29.928C-25.403,-30.48 -24.7,-31.112 -24.512,-31.836C-23.896,-33.079 -23.206,-34.288 -22.44,-35.462C-21.163,-37.216 -19.924,-38.577 -18.729,-39.547C-15.471,-42.136 -11.891,-43.511 -8.034,-43.636C-5.068,-43.765 -2.373,-43.439 0,-42.677M-9.839,-26.245C-9.605,-25.305 -8.917,-24.424 -7.776,-23.6C-7.405,-23.337 -7.23,-23.209 -7.261,-23.219C-7.286,-23.14 -7.312,-23.06 -7.337,-22.981C-7.602,-22.977 -7.997,-22.957 -8.527,-22.921C-9.785,-22.735 -10.702,-22.335 -11.275,-21.729C-11.295,-21.662 -11.315,-21.596 -11.335,-21.53C-12.639,-17.292 -13.482,-13.434 -13.906,-9.968C-13.944,-8.846 -13.718,-7.965 -13.24,-7.32C-12.761,-6.676 -12.001,-6.189 -10.961,-5.852C-8.909,-5.191 -7.137,-6.084 -5.608,-8.552C-5.18,-9.255 -4.753,-10.24 -4.33,-11.499C-3.097,-15.238 -2.268,-17.751 -1.835,-19.037C-2.125,-20.102 -2.69,-20.961 -3.522,-21.616C-3.928,-21.866 -4.193,-22.011 -4.311,-22.05C-4.281,-22.143 -4.25,-22.234 -4.22,-22.327C-3.919,-22.256 -3.322,-22.266 -2.442,-22.353C-1.83,-22.414 -1.17,-22.673 -0.454,-23.134C-0.404,-23.38 -0.361,-23.556 -0.326,-23.661C-0.202,-24.029 -0.078,-24.397 0.046,-24.764C1.373,-28.704 2.011,-31.192 1.956,-32.236C1.924,-33.65 1.59,-34.683 0.95,-35.33C0.413,-35.859 -0.292,-36.263 -1.152,-36.541C-3.153,-37.186 -4.741,-36.721 -5.891,-35.164C-6.636,-34.176 -7.119,-33.355 -7.356,-32.701C-8.6,-29.75 -9.425,-27.598 -9.839,-26.245" style="fill:rgb(255,216,0);fill-rule:nonzero;"/>
        </g>
        <g transform="matrix(1,0,0,1,599.419,540.858)">
            <path d="M0,-56.881C6.536,-54.218 13.015,-51.366 19.431,-48.326C19.488,-48.079 19.708,-44.796 19.893,-38.506C20.219,-27.91 20.106,-22.3 20.097,-21.562C20.195,-21.512 20.291,-21.462 20.389,-21.412C22.801,-26.077 25.212,-30.742 27.624,-35.407C28.161,-36.442 28.306,-37.192 28.067,-37.658C27.818,-38.034 27.403,-38.375 26.817,-38.672C26.276,-38.948 25.735,-39.222 25.193,-39.495C25.132,-39.525 25.137,-39.602 25.198,-39.725C25.97,-41.26 26.743,-42.795 27.515,-44.33C27.528,-44.355 27.546,-44.359 27.578,-44.345C33.432,-41.397 39.229,-38.291 44.961,-35.024C45.017,-34.99 45.039,-34.962 45.027,-34.938C44.149,-33.397 43.27,-31.857 42.392,-30.316C42.376,-30.291 42.343,-30.296 42.286,-30.328C41.755,-30.631 41.223,-30.932 40.692,-31.232C39.688,-31.798 38.943,-31.829 38.479,-31.327C38.122,-31.02 37.748,-30.513 37.356,-29.812C36.238,-27.801 35.121,-25.79 34.004,-23.779C33.551,-22.507 33.459,-21.29 33.723,-20.127C33.994,-19.244 34.38,-18.547 34.895,-18.033C35,-17.926 35.103,-17.819 35.206,-17.713C35.205,-17.585 35.134,-17.464 35,-17.351C33.54,-17.673 32.256,-17.52 31.152,-16.898C30.119,-16.205 29.515,-15.7 29.34,-15.386C26.493,-10.262 23.646,-5.138 20.798,-0.015C20.78,0.01 20.769,0.014 20.74,-0C16.128,-2.562 11.47,-5.009 6.772,-7.34C6.737,-7.481 6.803,-10.486 6.807,-16.393C6.734,-21.844 6.559,-27.314 6.283,-32.802C6.197,-32.841 6.111,-32.88 6.024,-32.919C5.995,-32.933 5.973,-32.926 5.965,-32.901C4.071,-28.739 2.176,-24.576 0.282,-20.414C-0.577,-18.523 -0.922,-17.433 -0.761,-17.144C-0.707,-16.692 -0.324,-16.304 0.381,-15.979C0.923,-15.728 1.466,-15.475 2.008,-15.222C2.033,-15.208 2.04,-15.191 2.03,-15.165C1.331,-13.672 0.631,-12.179 -0.067,-10.685C-0.079,-10.66 -0.1,-10.654 -0.125,-10.667C-5.368,-13.123 -10.66,-15.438 -15.995,-17.611C-16.019,-17.622 -16.028,-17.641 -16.02,-17.666C-15.398,-19.193 -14.775,-20.721 -14.154,-22.247C-14.145,-22.273 -14.124,-22.281 -14.097,-22.27C-13.56,-22.051 -13.023,-21.831 -12.487,-21.609C-11.607,-21.245 -10.957,-21.333 -10.535,-21.877C-10.225,-22.228 -9.909,-22.787 -9.588,-23.553C-8.333,-26.543 -7.078,-29.533 -5.823,-32.522C-5.596,-34.02 -5.722,-35.277 -6.219,-36.291C-6.668,-37.165 -7.266,-37.876 -8.024,-38.423C-7.998,-38.488 -7.972,-38.552 -7.945,-38.616C-7.201,-38.462 -6.398,-38.479 -5.541,-38.664C-4.484,-38.919 -3.473,-39.636 -2.495,-40.819C-2.246,-41.166 -2.094,-41.403 -2.042,-41.531C-1.178,-43.588 -0.315,-45.645 0.548,-47.702C1.055,-48.903 1.204,-49.726 1.003,-50.171C0.81,-50.55 0.337,-50.9 -0.414,-51.21C-0.955,-51.433 -1.496,-51.655 -2.039,-51.876C-2.066,-51.888 -2.08,-51.907 -2.068,-51.933C-1.399,-53.576 -0.73,-55.219 -0.062,-56.861C-0.053,-56.886 -0.028,-56.895 0,-56.881" style="fill:rgb(255,216,0);fill-rule:nonzero;"/>
        </g>
        <g transform="matrix(1,0,0,1,329.305,597.441)">
            <path d="M0,-29.812L12.843,-29.812C12.862,-29.812 13.21,-28.805 13.889,-26.79L16.678,-18.596L17.027,-18.596C19.254,-25.686 20.436,-29.424 20.572,-29.812L33.821,-29.812C33.841,-29.812 33.851,-29.793 33.851,-29.754L33.851,-26.093C33.851,-26.073 33.841,-26.064 33.821,-26.064L32.311,-26.064C31.671,-26.064 31.274,-25.899 31.119,-25.57C30.964,-25.26 30.887,-24.814 30.887,-24.233L30.887,-19.003C30.887,-18.248 31.139,-17.54 31.642,-16.882C32.107,-16.378 32.668,-16.039 33.328,-15.865C33.328,-15.807 33.337,-15.729 33.357,-15.632C32.427,-15.342 31.758,-14.848 31.352,-14.151C31.042,-13.724 30.887,-12.998 30.887,-11.971L30.887,-5.259C30.887,-4.31 31.071,-3.738 31.439,-3.545C31.594,-3.429 32.03,-3.371 32.747,-3.371L33.821,-3.371C33.841,-3.371 33.851,-3.36 33.851,-3.341L33.851,-0.029C33.851,-0.01 33.841,0 33.821,0L20.194,0C20.155,0 20.136,-0.01 20.136,-0.029L20.136,-3.341C20.136,-3.36 20.155,-3.371 20.194,-3.371L20.629,-3.371C21.521,-3.371 22.024,-3.506 22.141,-3.777C22.354,-3.99 22.46,-4.581 22.46,-5.55L22.46,-17.579L22.257,-17.579C19.216,-8.029 17.598,-2.973 17.404,-2.412L13.627,-2.412C13.607,-2.412 13.453,-2.857 13.163,-3.748L8.368,-17.579C8.349,-17.579 8.271,-17.598 8.135,-17.637L8.135,-5.317C8.135,-4.387 8.31,-3.816 8.659,-3.603C8.833,-3.448 9.278,-3.371 9.995,-3.371L10.46,-3.371C10.479,-3.371 10.489,-3.36 10.489,-3.341L10.489,-0.029C10.489,-0.01 10.479,0 10.46,0L0,0C-0.02,0 -0.029,-0.01 -0.029,-0.029L-0.029,-3.341C-0.029,-3.36 -0.02,-3.371 0,-3.371L1.075,-3.371C1.946,-3.371 2.459,-3.496 2.615,-3.748C2.828,-4.058 2.935,-4.562 2.935,-5.259L2.935,-12.64C2.935,-13.414 2.595,-14.141 1.917,-14.819C1.491,-15.226 0.997,-15.506 0.436,-15.662L0.436,-15.836C0.668,-15.932 0.968,-16.058 1.336,-16.213C2.052,-16.581 2.528,-17.143 2.76,-17.899C2.876,-18.286 2.935,-18.596 2.935,-18.829L2.935,-24.204C2.935,-25.153 2.75,-25.715 2.382,-25.889C2.169,-26.005 1.878,-26.064 1.51,-26.064L0,-26.064C-0.02,-26.064 -0.029,-26.073 -0.029,-26.093L-0.029,-29.754C-0.029,-29.793 -0.02,-29.812 0,-29.812" style="fill:rgb(255,216,0);fill-rule:nonzero;"/>
        </g>
        <g transform="matrix(1,0,0,1,368.483,597.441)">
            <path d="M0,-29.638L21.821,-29.638C21.84,-29.638 21.851,-29.628 21.851,-29.609L21.851,-19.497C21.851,-19.478 21.84,-19.468 21.821,-19.468L16.155,-19.468C16.116,-19.468 16.097,-19.478 16.097,-19.497C15.981,-23.023 15.894,-24.786 15.836,-24.786C15.622,-25.464 15.157,-25.803 14.441,-25.803L12.494,-25.803C11.583,-25.803 11.128,-25.464 11.128,-24.786L11.1,-18.161L16.446,-18.161L16.388,-11.797L11.041,-11.797L11.041,-11.768C11.041,-10.625 11.032,-8.155 11.012,-4.359C11.012,-3.952 11.216,-3.661 11.623,-3.487C11.739,-3.467 11.835,-3.458 11.913,-3.458L13.337,-3.458C14.441,-3.458 15.148,-3.739 15.458,-4.3C15.749,-4.843 15.894,-5.318 15.894,-5.725C16.126,-7.545 16.243,-9.114 16.243,-10.432L16.272,-10.461L21.734,-10.461C21.753,-10.461 21.763,-10.451 21.763,-10.432L21.763,-0.03C21.763,-0.01 21.753,0 21.734,0L0,0C-0.039,0 -0.058,-0.01 -0.058,-0.03L-0.058,-3.458C-0.039,-3.497 -0.02,-3.516 0,-3.516L1.133,-3.516C2.005,-3.516 2.489,-3.671 2.586,-3.981C2.76,-4.272 2.848,-4.746 2.848,-5.405L2.848,-11.739C2.848,-12.766 2.663,-13.502 2.295,-13.947C1.927,-14.548 1.24,-15.032 0.232,-15.4L0.232,-15.545C1.317,-15.933 2.015,-16.398 2.324,-16.94C2.673,-17.54 2.848,-18.131 2.848,-18.713L2.848,-24.001C2.848,-24.892 2.711,-25.434 2.441,-25.628C2.227,-25.783 1.889,-25.861 1.423,-25.861L0,-25.861C-0.039,-25.861 -0.058,-25.87 -0.058,-25.889L-0.058,-29.609C-0.039,-29.628 -0.02,-29.638 0,-29.638" style="fill:rgb(255,216,0);fill-rule:nonzero;"/>
        </g>
        <g transform="matrix(1,0,0,1,395.691,597.441)">
            <path d="M0,-29.667L13.54,-29.667C13.559,-29.667 13.569,-29.657 13.569,-29.638L13.569,-25.977C13.569,-25.957 13.559,-25.947 13.54,-25.947L13.046,-25.947C12.639,-25.947 12.436,-25.705 12.436,-25.221C12.436,-24.93 12.688,-24.33 13.191,-23.419L14.47,-20.892L14.499,-20.892C15.623,-23.003 16.271,-24.252 16.446,-24.64C16.601,-24.969 16.678,-25.192 16.678,-25.308L16.678,-25.483C16.678,-25.696 16.552,-25.841 16.3,-25.918C16.203,-25.938 16.136,-25.947 16.097,-25.947L15.603,-25.947C15.583,-25.947 15.574,-25.957 15.574,-25.977L15.574,-29.638C15.574,-29.657 15.583,-29.667 15.603,-29.667L26.616,-29.667C26.635,-29.667 26.645,-29.657 26.645,-29.638L26.645,-25.977C26.645,-25.957 26.635,-25.947 26.616,-25.947L25.686,-25.947C24.873,-25.947 24.242,-25.56 23.797,-24.785C23.332,-24.107 22.625,-22.858 21.676,-21.037C20.863,-19.603 20.456,-18.761 20.456,-18.509C20.397,-18.296 20.369,-18.083 20.369,-17.87L20.369,-17.696C20.465,-16.707 21.25,-16.078 22.722,-15.807C22.819,-15.749 22.809,-15.68 22.693,-15.603C22.364,-15.603 21.908,-15.458 21.328,-15.168C20.959,-14.916 20.775,-14.586 20.775,-14.18L20.775,-14.151C20.775,-13.724 21.114,-12.891 21.792,-11.652C23.478,-8.223 24.659,-5.879 25.337,-4.62C25.531,-4.329 25.783,-4.029 26.093,-3.719C26.364,-3.487 26.809,-3.371 27.429,-3.371L28.156,-3.371C28.194,-3.351 28.214,-3.332 28.214,-3.313L28.214,-0.029C28.214,-0.01 28.194,0 28.156,0L14.122,0C14.102,0 14.092,-0.01 14.092,-0.029L14.092,-3.371L14.296,-3.371C14.625,-3.371 14.848,-3.429 14.964,-3.545C15.099,-3.719 15.167,-3.952 15.167,-4.242L15.167,-4.271C15.167,-4.717 14.431,-6.324 12.959,-9.095C11.7,-6.693 11.002,-5.327 10.867,-4.998C10.731,-4.63 10.664,-4.339 10.664,-4.126C10.664,-3.796 10.818,-3.554 11.128,-3.399C11.206,-3.38 11.341,-3.371 11.536,-3.371L11.884,-3.371C11.922,-3.351 11.942,-3.332 11.942,-3.313L11.942,-0.029C11.942,-0.01 11.922,0 11.884,0L0.058,0C0.039,0 0.029,-0.01 0.029,-0.029L0.029,-3.313C0.029,-3.351 0.039,-3.371 0.058,-3.371L0.726,-3.371C1.85,-3.371 2.566,-3.603 2.876,-4.068C3.089,-4.281 3.341,-4.639 3.632,-5.143C3.941,-5.724 4.28,-6.334 4.649,-6.974C4.9,-7.419 5.898,-9.317 7.642,-12.668L7.613,-12.64C7.613,-12.659 7.603,-12.668 7.583,-12.668C7.68,-12.978 7.729,-13.26 7.729,-13.511C7.729,-14.596 6.963,-15.274 5.433,-15.545C5.143,-15.584 4.881,-15.603 4.649,-15.603L4.62,-15.749C4.813,-15.768 5.133,-15.894 5.579,-16.126C5.889,-16.378 6.043,-16.737 6.043,-17.202C6.043,-17.647 5.937,-18.024 5.724,-18.335C5.569,-18.664 4.377,-21.008 2.15,-25.366C1.918,-25.715 1.675,-25.889 1.424,-25.889C1.346,-25.928 1.152,-25.947 0.843,-25.947L0,-25.947C-0.02,-25.947 -0.029,-25.957 -0.029,-25.977L-0.029,-29.638C-0.029,-29.657 -0.02,-29.667 0,-29.667" style="fill:rgb(255,216,0);fill-rule:nonzero;"/>
        </g>
        <g transform="matrix(1,0,0,1,428.971,597.441)">
            <path d="M0,-29.783L14.295,-29.783C14.315,-29.783 14.324,-29.773 14.324,-29.754L14.324,-26.093C14.324,-26.073 14.315,-26.064 14.295,-26.064L12.755,-26.064C12.174,-26.064 11.796,-25.918 11.622,-25.628C11.448,-25.318 11.361,-24.872 11.361,-24.291L11.361,-18.974C11.399,-18.121 11.612,-17.463 12,-16.998C12.368,-16.533 12.939,-16.174 13.714,-15.923L13.714,-15.72C13.269,-15.526 12.852,-15.303 12.465,-15.051C11.845,-14.586 11.506,-13.889 11.448,-12.959C11.39,-12.784 11.361,-12.649 11.361,-12.552L11.361,-5.201C11.361,-4.271 11.564,-3.719 11.971,-3.545C12.126,-3.429 12.533,-3.37 13.191,-3.37L14.295,-3.37C14.315,-3.37 14.324,-3.36 14.324,-3.341L14.324,-0.029C14.324,-0.009 14.315,0 14.295,0L0,0C-0.02,0 -0.029,-0.009 -0.029,-0.029L-0.029,-3.341C-0.029,-3.36 -0.02,-3.37 0,-3.37L1.133,-3.37C2.023,-3.37 2.528,-3.516 2.644,-3.806C2.837,-4.039 2.935,-4.678 2.935,-5.724L2.935,-12.029C2.935,-13.094 2.731,-13.869 2.324,-14.354C1.976,-14.915 1.297,-15.342 0.291,-15.632L0.291,-15.865C1.084,-16.02 1.666,-16.301 2.034,-16.707C2.421,-17.017 2.702,-17.559 2.876,-18.334C2.915,-18.586 2.935,-18.77 2.935,-18.887L2.935,-23.652C2.935,-24.911 2.798,-25.628 2.528,-25.802C2.314,-25.976 1.985,-26.064 1.54,-26.064L0,-26.064C-0.02,-26.064 -0.029,-26.073 -0.029,-26.093L-0.029,-29.754C-0.029,-29.773 -0.02,-29.783 0,-29.783" style="fill:rgb(255,216,0);fill-rule:nonzero;"/>
        </g>
        <g transform="matrix(1,0,0,1,462.57,598.051)">
            <path d="M0,-30.887L0.901,-30.887C3.128,-30.887 5.298,-30.335 7.41,-29.231C8.068,-28.882 8.805,-28.34 9.618,-27.604C10.393,-26.849 10.955,-26.209 11.303,-25.686C12.64,-23.652 13.308,-21.415 13.308,-18.974L13.279,-18.945L3.749,-18.945C3.729,-18.945 3.709,-18.974 3.69,-19.032C3.69,-20.93 3.487,-22.916 3.08,-24.989C2.964,-25.512 2.78,-25.88 2.528,-26.093C1.947,-26.635 1.279,-26.907 0.523,-26.907C-0.62,-26.907 -1.346,-26.577 -1.656,-25.918C-1.85,-25.55 -2.015,-25.114 -2.15,-24.611C-2.286,-24.262 -2.411,-22.645 -2.528,-19.759L-2.528,-19.73C-2.528,-19.09 -2.344,-18.46 -1.976,-17.841C-1.568,-17.26 -0.968,-16.853 -0.174,-16.621C0,-16.562 0.165,-16.523 0.32,-16.504L0.32,-16.388C-0.358,-16.31 -0.998,-16.02 -1.598,-15.516C-2.121,-14.974 -2.431,-14.48 -2.528,-14.034C-2.528,-13.995 -2.538,-13.957 -2.557,-13.918C-2.557,-12.93 -2.353,-10.712 -1.946,-7.264C-1.811,-6.605 -1.656,-6.073 -1.481,-5.666C-1.094,-4.833 -0.639,-4.319 -0.116,-4.126C0.175,-4.01 0.513,-3.952 0.901,-3.952C2.141,-3.952 3.003,-5.453 3.487,-8.456C3.662,-9.753 3.749,-11.08 3.749,-12.436L14.035,-12.436C14.073,-12.436 14.093,-12.427 14.093,-12.407L14.093,-12.32C14.093,-10.344 13.56,-8.271 12.495,-6.102C11.371,-4.087 9.686,-2.508 7.439,-1.366C5.56,-0.456 3.293,0 0.64,0C-2.208,0 -4.727,-0.698 -6.916,-2.092C-7.399,-2.383 -8.048,-2.935 -8.862,-3.748C-10.044,-5.065 -10.964,-6.596 -11.622,-8.339C-11.854,-8.959 -12.097,-9.811 -12.349,-10.896C-12.601,-12.349 -12.727,-13.395 -12.727,-14.034C-12.92,-14.732 -13.24,-15.264 -13.686,-15.632C-14.228,-16.078 -14.828,-16.349 -15.487,-16.446L-15.487,-16.562C-14.557,-16.659 -13.879,-16.891 -13.453,-17.26C-12.969,-17.705 -12.717,-18.005 -12.697,-18.16C-12.601,-18.238 -12.513,-18.538 -12.436,-19.061C-12.087,-20.708 -11.709,-21.986 -11.303,-22.897C-10.993,-23.632 -10.577,-24.408 -10.053,-25.221C-8.446,-27.623 -6.354,-29.299 -3.777,-30.248C-2.402,-30.674 -1.143,-30.887 0,-30.887" style="fill:rgb(255,216,0);fill-rule:nonzero;"/>
        </g>
        <g transform="matrix(1,0,0,1,486.32,597.441)">
            <path d="M0,-29.667L19.061,-29.667C19.08,-29.667 19.09,-29.657 19.09,-29.638L19.09,-25.918C19.09,-25.88 19.08,-25.86 19.061,-25.86L17.695,-25.86C17.037,-25.86 16.708,-25.618 16.708,-25.134L18.218,-18.248C18.509,-17.589 18.906,-17.017 19.41,-16.533C20.146,-15.952 20.969,-15.662 21.879,-15.662L21.909,-15.662L21.909,-15.487C21.037,-15.332 20.427,-14.886 20.078,-14.151C19.788,-13.55 19.642,-12.852 19.642,-12.058C19.642,-12.019 19.623,-11.971 19.584,-11.913C20.417,-8.038 20.92,-5.772 21.095,-5.114C21.289,-4.436 21.492,-4.01 21.705,-3.835C21.996,-3.622 22.325,-3.516 22.693,-3.516L23.333,-3.516C23.352,-3.516 23.361,-3.506 23.361,-3.487L23.361,-0.029C23.361,-0.01 23.352,0 23.333,0L10.809,0C10.79,0 10.78,-0.01 10.78,-0.029L10.78,-3.487C10.78,-3.506 10.79,-3.516 10.809,-3.516L11.709,-3.516C12.213,-3.516 12.542,-3.603 12.698,-3.777C12.794,-3.893 12.843,-4.048 12.843,-4.242L12.843,-4.446C12.843,-4.969 12.688,-5.821 12.378,-7.003L4.591,-7.003C4.552,-7.003 4.484,-6.78 4.387,-6.334C4.155,-5.443 4.039,-4.959 4.039,-4.882L4.039,-4.794C4.039,-4.213 4.184,-3.845 4.475,-3.69C4.707,-3.574 4.939,-3.516 5.172,-3.516L5.637,-3.516C5.656,-3.516 5.666,-3.506 5.666,-3.487L5.666,-0.029C5.666,-0.01 5.656,0 5.637,0L-5.085,0C-5.104,0 -5.114,-0.01 -5.114,-0.029L-5.114,-3.487C-5.114,-3.506 -5.104,-3.516 -5.085,-3.516L-4.388,-3.516C-3.497,-3.516 -2.896,-4.029 -2.586,-5.056C-2.374,-5.637 -1.753,-8.107 -0.727,-12.465C-0.727,-13.279 -0.988,-14.035 -1.511,-14.732C-2.015,-15.235 -2.441,-15.516 -2.79,-15.574L-2.79,-15.72C-2.208,-15.72 -1.589,-15.913 -0.93,-16.301C-0.446,-16.688 -0.087,-17.095 0.146,-17.521C0.59,-18.257 0.823,-18.683 0.842,-18.799C1.849,-22.848 2.354,-24.95 2.354,-25.105L2.354,-25.134C2.354,-25.618 2.063,-25.86 1.481,-25.86L0,-25.86C-0.02,-25.86 -0.029,-25.88 -0.029,-25.918L-0.029,-29.638C-0.029,-29.657 -0.02,-29.667 0,-29.667M8.484,-23.187C8.426,-22.955 7.632,-19.691 6.102,-13.395L10.838,-13.395C10.606,-14.518 9.889,-17.782 8.688,-23.187L8.484,-23.187Z" style="fill:rgb(255,216,0);fill-rule:nonzero;"/>
        </g>
        <g transform="matrix(1,0,0,1,515.039,597.441)">
            <path d="M0,-29.638L12.436,-29.638C12.533,-29.502 13.453,-27.488 15.196,-23.594C18.16,-17.047 19.739,-13.541 19.933,-13.076L20.136,-13.076L20.136,-24.088C20.136,-24.902 20.01,-25.415 19.758,-25.628C19.526,-25.783 19.216,-25.861 18.829,-25.861L17.753,-25.861C17.714,-25.861 17.695,-25.909 17.695,-26.006L17.695,-29.609C17.695,-29.628 17.705,-29.638 17.724,-29.638L29.173,-29.638C29.211,-29.638 29.231,-29.628 29.231,-29.609L29.231,-25.889C29.231,-25.87 29.211,-25.861 29.173,-25.861L28.098,-25.861C27.419,-25.861 27.032,-25.628 26.936,-25.164C26.838,-24.853 26.79,-24.417 26.79,-23.856L26.79,-19.032C26.925,-18.103 27.235,-17.328 27.72,-16.708C28.126,-16.262 28.543,-15.971 28.969,-15.836L29.231,-15.749C29.27,-15.671 29.27,-15.575 29.231,-15.458C28.359,-15.148 27.72,-14.616 27.313,-13.86C26.964,-13.085 26.79,-12.572 26.79,-12.32L26.79,-0.03C26.79,-0.01 26.78,0 26.761,0L16.446,0C16.388,-0.078 15.535,-1.976 13.889,-5.695L9.211,-15.923L9.037,-15.923C9.017,-15.923 9.007,-15.913 9.007,-15.894L9.007,-6.305C9.007,-4.853 9.095,-4.058 9.269,-3.923C9.424,-3.651 9.753,-3.516 10.257,-3.516L11.419,-3.516C11.438,-3.516 11.448,-3.506 11.448,-3.487L11.448,-0.03C11.448,-0.01 11.438,0 11.419,0L0,0C-0.02,0 -0.029,-0.01 -0.029,-0.03L-0.029,-3.487C-0.029,-3.506 -0.02,-3.516 0,-3.516L1.133,-3.516C1.753,-3.516 2.121,-3.749 2.237,-4.214C2.334,-4.523 2.382,-4.969 2.382,-5.55L2.382,-12.35C2.15,-13.376 1.772,-14.151 1.249,-14.674C0.785,-15.119 0.271,-15.419 -0.291,-15.575L-0.291,-15.72C0.174,-15.817 0.629,-16.039 1.075,-16.388C1.617,-16.834 2.023,-17.57 2.295,-18.597C2.354,-18.887 2.382,-19.081 2.382,-19.178L2.382,-23.856C2.382,-24.766 2.276,-25.338 2.063,-25.57C1.869,-25.764 1.53,-25.861 1.045,-25.861L0,-25.861C-0.02,-25.861 -0.029,-25.87 -0.029,-25.889L-0.029,-29.609C-0.029,-29.628 -0.02,-29.638 0,-29.638" style="fill:rgb(255,216,0);fill-rule:nonzero;"/>
        </g>
        <g transform="matrix(1,0,0,1,563.603,598.313)">
            <path d="M0,-31.149L0.727,-31.149C2.489,-31.149 4.368,-30.674 6.363,-29.725C6.905,-29.435 7.477,-29.057 8.078,-28.592C8.484,-28.244 8.91,-27.837 9.356,-27.372C9.917,-26.713 10.383,-26.112 10.75,-25.57C11.274,-24.737 11.661,-24.001 11.913,-23.362C12.32,-22.432 12.708,-21.086 13.076,-19.323C13.134,-18.781 13.259,-18.374 13.453,-18.103C13.802,-17.502 14.47,-17.047 15.458,-16.737C15.709,-16.679 15.865,-16.65 15.923,-16.65L15.923,-16.505C15.458,-16.408 15.109,-16.291 14.877,-16.156C14.179,-15.768 13.705,-15.217 13.453,-14.5C13.434,-14.5 13.385,-13.977 13.308,-12.93C13.153,-11.652 12.978,-10.635 12.785,-9.88C12.378,-8.466 11.952,-7.342 11.506,-6.509C10.15,-3.816 8.048,-1.928 5.201,-0.843C3.593,-0.282 1.995,0 0.407,0C-2.731,0 -5.482,-0.911 -7.845,-2.732C-8.678,-3.488 -9.269,-4.097 -9.618,-4.563C-10.257,-5.434 -10.809,-6.403 -11.274,-7.468C-11.662,-8.398 -11.952,-9.289 -12.146,-10.141C-12.32,-10.742 -12.485,-11.739 -12.64,-13.134C-12.64,-13.211 -12.659,-13.269 -12.698,-13.308L-12.698,-13.338C-12.698,-13.415 -12.688,-13.483 -12.668,-13.541C-12.708,-14.994 -13.424,-15.982 -14.819,-16.505L-14.79,-16.737C-14.286,-16.853 -13.812,-17.086 -13.366,-17.435C-12.727,-18.016 -12.407,-18.568 -12.407,-19.091C-12.233,-20.04 -12.01,-20.98 -11.739,-21.909C-11.255,-23.323 -10.741,-24.466 -10.199,-25.338C-8.708,-27.681 -6.876,-29.28 -4.708,-30.132C-3.042,-30.81 -1.472,-31.149 0,-31.149M-2.702,-18.132C-2.393,-17.551 -1.821,-17.105 -0.988,-16.795C-0.717,-16.698 -0.591,-16.65 -0.61,-16.65L-0.61,-16.475C-0.766,-16.417 -0.998,-16.32 -1.308,-16.185C-2.024,-15.797 -2.499,-15.342 -2.731,-14.819L-2.731,-14.674C-2.731,-11.575 -2.528,-8.824 -2.122,-6.422C-1.928,-5.666 -1.618,-5.124 -1.191,-4.795C-0.766,-4.465 -0.194,-4.301 0.523,-4.301C1.937,-4.301 2.857,-5.289 3.284,-7.265C3.4,-7.826 3.458,-8.572 3.458,-9.502C3.438,-12.253 3.429,-14.102 3.429,-15.052C3.041,-15.691 2.538,-16.136 1.917,-16.389C1.627,-16.466 1.443,-16.505 1.365,-16.505L1.365,-16.708C1.559,-16.727 1.908,-16.863 2.412,-17.115C2.76,-17.289 3.099,-17.609 3.429,-18.074C3.409,-18.248 3.4,-18.374 3.4,-18.452L3.4,-19.265C3.4,-22.171 3.284,-23.962 3.051,-24.641C2.76,-25.57 2.373,-26.18 1.889,-26.471C1.482,-26.703 1.007,-26.82 0.465,-26.82C-0.795,-26.82 -1.618,-26.18 -2.005,-24.902C-2.257,-24.089 -2.393,-23.439 -2.412,-22.955C-2.605,-20.727 -2.702,-19.12 -2.702,-18.132" style="fill:rgb(255,216,0);fill-rule:nonzero;"/>
        </g>
    </g>
</svg>
