<svg viewBox="0 0 1570 590" xmlns="http://www.w3.org/2000/svg" fill-rule="evenodd" clip-rule="evenodd" stroke-linejoin="round" stroke-miterlimit="2">
  <path d="M34 211a1518 1518 0 01133-67l24 53a1482 1482 0 00-35 15l-14-26c-3-3-7-3-11-1l-12 6c-5 2-7 5-5 9l17 34a1438 1438 0 0131-16 49126 49126 0 0015 33l-31 15h1l18 38c1 2 3 3 6 3l2-1 8-4c6-3 9-6 9-10l-1-8a200 200 0 00-9-26 1396 1396 0 0131-14l24 54a1349 1349 0 00-118 60l-9-17v-1l6-3c4-3 7-5 6-7 1-2 0-4-2-8l-18-31c-2-5-5-8-9-9-4-2-9-3-15-1l-1-1c5-5 8-10 8-13 0-5 0-8-2-11l-14-26c-3-5-5-7-7-7l-7 2a1461 1461 0 00-9 5l-10-18v-1M178 138a1516 1516 0 0190-36l7 20c1 0 0 0 0 0l-9 4c-4 1-6 3-7 5l2 8 12 31c1 3 3 5 7 7 5 1 8 2 11 1h2v1l-6 6c-3 3-4 7-4 12v1l11 28v1l6 15c1 3 3 5 5 5h4l7-3c7-2 11-6 11-12l-2-10-5-21-1-1a1391 1391 0 0134-11l18 57a1346 1346 0 00-125 47l-8-17 7-3c5-2 7-4 7-6 1-2 0-5-2-11l-14-33-7-9c-4-3-9-4-15-3h-2v-1l5-5c3-4 5-7 5-12l-1-6-11-25c-3-7-5-10-8-10l-6 2a1508 1508 0 00-9 4l-9-20M523 32l5-1c15-3 30-2 45 2a72 72 0 0128 17 61 61 0 0117 36 1454 1454 0 00-61 8c-1-11-4-22-9-33-1-3-3-4-4-5-5-3-9-4-14-3-8 2-12 4-13 8l-2 8a152 152 0 003 28c0 3 2 7 5 10s7 4 12 5h4l-11 7a18 18 0 00-5 10 416 416 0 0015 45c4 5 7 7 10 8l6-1c8-1 11-10 12-27l-2-23a1413 1413 0 0163-8c2 11 0 23-5 36-6 13-15 23-27 31-10 7-23 11-38 14-17 3-32 2-47-3l-13-7a86 86 0 01-30-35l-6-17c-2-4-5-6-8-8-4-1-8-2-12-1v-1c5-2 9-4 11-7l4-6v-5l2-23 6-15a79 79 0 0159-44M656 18a1518 1518 0 01127-6v22h-9c-4 0-6 1-6 4l10 39 7 10c5 3 10 5 16 5v1c-6 1-9 3-12 7l-2 12-1 1 9 39 4 7 6 2a1229 1229 0 014 0v20h-1a1346 1346 0 00-74 1l-1-20h1a1222 1222 0 0111-2l1-3v-1c0-3-1-8-4-14l-47 2-1 4-1 8v1c0 3 1 5 3 6l4 1 3-1v1l1 19a1351 1351 0 00-63 5l-3-19h1l4-1c5 0 8-3 10-9l7-43c0-5-2-9-6-13l-8-4v-1c3 0 7-2 11-4l6-8 4-7 7-37c0-3-2-4-6-4a1588 1588 0 00-10 1l-2-21m58 33l-12 56 30-1-16-55h-2M820 12c28 0 57 2 85 4l6 18a2198 2198 0 0116 48l29-61a1513 1513 0 0188 13l-4 21-10-2c-4-1-6 0-8 2l-2 7-5 29c-1 4 0 9 3 13 2 3 5 6 9 7v2c-6 0-10 2-14 6-2 2-4 6-4 12l-6 37c-1 6-1 9 1 10l8 3a1777 1777 0 016 1l-3 19a1351 1351 0 00-80-12l2-19 3 1c5 0 8 0 9-2a395290 395290 0 0011-78l-1 1-39 82-22-2-3-8a2134 2134 0 00-25-81l-4 70c0 5 0 9 2 10l8 2h3a29828 29828 0 00-1 19 1346 1346 0 00-62-3v-19a1170 1170 0 0116-2c2-1 2-4 2-8l2-42c0-4-2-9-6-13l-9-5v-1l6-2c4-2 7-5 9-9l1-5 1-31c1-5-1-8-3-9l-6-2a1373 1373 0 00-10 0l1-21M1055 36a1514 1514 0 0193 20l-5 20a1625 1625 0 00-18-1l-3 7-7 29c-1 5 0 9 1 12 2 3 5 6 10 8l-1 1-8 2c-5 2-8 5-9 10l-1 3-10 40c-1 5 0 9 2 10l7 3a1098 1098 0 016 2l-4 18a1345 1345 0 00-84-18l4-18 7 1c5 1 8 1 9-1 1-1 3-4 4-10l7-36c1-5 0-10-2-13-1-4-5-7-11-10v-1c5 0 9-1 12-3 3-1 5-4 7-8l1-3 5-26c2-7 2-12 0-13l-6-3a1376 1376 0 00-10-2l3-20h1M1248 81l5 2c11 3 22 10 33 19a80 80 0 0115 20l5 13 2 14c1 6 1 14-1 24v8c1 4 4 8 9 12l3 1v1l-7-1c-5 1-9 3-12 6l-4 8-10 15-14 15a71 71 0 01-47 17c-10 0-19-2-28-4-18-6-32-16-43-30l-8-12a89 89 0 01-5-52v-1-1-1c2-8-1-14-9-19l1-2c3 1 6 0 10-1 4-2 7-5 8-8l8-14c5-7 10-13 15-16 13-11 27-16 42-17 12 0 23 1 32 4m-39 65c1 4 4 8 8 11l2 2-5 1c-5 0-8 2-11 4v1c-5 17-8 32-10 46 0 5 1 8 3 11l9 6c8 2 15-1 21-11l5-12 10-30c-1-4-3-8-7-10l-3-2v-1h8c2 0 5-1 7-3l1-2a5617 5617 0 019-34c0-6-1-10-4-13l-8-4c-8-3-15-1-19 5l-6 10-10 25M1356 124l78 34 1 39c2 42 1 65 1 68h1l29-55c2-4 3-7 2-9l-5-4a1404 1404 0 00-6-4l9-19a1522 1522 0 0169 38l-10 18h-1l-6-4c-4-2-7-2-9 0l-4 6-13 24c-2 5-3 10-2 14l5 9 1 1v1c-6-1-11 0-16 2l-7 6-34 61-56-29v-36l-2-65h-1l-22 49-5 13a2353 2353 0 0111 8l-8 18a1343 1343 0 00-63-28l7-18 7 3c3 1 6 1 8-2l3-6 15-36c1-6 1-11-1-15l-7-8v-1h9a23 23 0 0014-12l11-24c2-5 2-8 1-10a1566 1566 0 00-12-7l8-20M283 457h51l4 12 11 32h2l14-44h52v15h-6c-2 0-4 0-4 2l-1 5v21c0 3 1 6 3 8 1 2 4 4 6 4v1c-3 1-6 3-8 6l-1 9v26c0 4 0 6 2 7l5 1h4v13h-54v-13h2l6-2 1-7v-48h-1l-19 61h-15l-2-6-19-55h-1v49c0 4 1 6 2 7l6 1h2v13h-42v-13h4c4 0 6-1 6-2l2-6v-29c0-3-2-6-4-9l-6-3v-1l3-1c3-2 5-4 6-7l1-4v-21c0-4-1-6-3-7h-9v-15M439 457h86v41h-22l-1-21c-1-3-3-4-6-4h-8c-3 0-5 1-5 4v26h21v25h-22v1a7017 7017 0 013 32l1 1h6c4 0 7-2 8-4l2-5 1-19h22v41h-87v-13l1-1h4c4 0 5 0 6-2l1-5v-25l-2-9c-2-3-4-4-8-6v-1c4-1 7-3 8-5l2-7v-21c0-4-1-6-2-7l-4-1h-6v-14l1-1M547 457h54v15h-2c-2 0-3 1-3 3l3 7 5 10a434 434 0 009-17v-1l-1-2h-3v-15h44v15h-4c-3 0-6 2-8 5a165 165 0 00-13 27v1c0 4 3 6 9 7v1l-6 2-2 4 4 10a1015 1015 0 0017 31l6 2h3v13h-56v-13h1l2-1 1-3-9-19a410 410 0 00-9 20l2 3h3v13h-47v-13h3c4 0 7-1 8-3l3-4 4-7 12-23v-3c0-5-3-7-9-9h-3l4-2 2-4-2-5a3140 3140 0 00-17-30h-5v-15M679 457h57v15h-6l-5 1-1 6v21c0 3 1 6 3 8 1 2 3 3 6 4v1l-4 2c-3 2-4 5-5 9v31c0 3 1 5 3 6l4 1h5v13h-57v-13h4c4 0 6-1 7-2l1-7v-26c0-4-1-7-3-9-1-2-4-4-8-5v-1c3 0 6-2 7-3 2-1 3-4 3-7l1-2v-19c0-5-1-8-2-8l-4-1h-6v-15M813 455h3c9 0 18 2 26 7a45 45 0 0115 14c6 8 8 17 8 26h-38l-2-24-2-4c-3-2-5-3-8-3-5 0-8 1-9 4l-2 5-2 19c0 3 1 5 3 8 1 2 4 4 7 5h2v1c-3 0-5 1-8 3a13 13 0 00-4 6 303 303 0 005 33c1 3 3 6 5 6l4 1c5 0 8-6 10-18l1-16h42v1c0 8-3 16-7 24s-11 15-20 19c-7 4-16 6-27 6s-21-3-30-9l-8-6a57 57 0 01-14-29l-1-12c-1-3-2-5-4-6l-7-4c4-1 6-1 8-3l3-3 1-4c1-7 3-12 5-15l5-10c6-9 14-16 25-20l15-2M907 457h76v16h-6c-2 0-4 0-4 2l6 28 5 7c3 2 6 3 10 3v1c-3 0-6 2-7 5l-2 8v1a1012 1012 0 008 32l4 1h3v14h-50v-14h3l4-1 1-2-2-11h-31l-1 3-1 6c0 3 1 4 2 5h4v14h-42v-14h2c4 0 6-2 8-6l7-29c0-3-1-7-3-9l-5-4c2 0 5-1 7-3l4-4 3-5 6-25v-1c0-2-1-2-3-2h-6v-16m34 26l-10 39h19l-9-39zM1021 457h49a721 721 0 0130 66h1v-43l-1-7-4-1h-5v-14-1h46v15h-4c-3 0-5 1-5 3v25l3 9c2 2 3 3 5 3l1 1v1c-3 1-6 3-7 6l-2 6v49h-42l-10-22-18-41h-1v38l1 10 4 1h5v14h-46v-14h5l4-2 1-6v-27c-1-4-3-7-5-9l-6-4c2-1 4-1 5-3a16 16 0 006-11v-19l-2-6-4-2h-4v-14-1M1214 455h3a49 49 0 0134 15l6 7 4 9c2 4 4 9 5 16l2 5c1 2 4 4 7 5l2 1-4 2c-3 1-4 3-5 6l-1 6-2 12-5 14c-6 11-14 18-25 22a52 52 0 01-52-8l-7-6a60 60 0 01-10-23 79 79 0 01-2-12v-1c0-6-3-10-9-12v-1l6-3c2-2 4-4 4-6l2-11 7-14c5-9 13-16 21-19 7-3 13-4 19-4m-11 52l7 5 2 1-3 1-6 6c0 13 1 24 3 33 0 3 2 5 3 7l7 2c6 0 9-4 11-12l1-9v-22c-2-3-4-4-6-5l-3-1v-1l5-1 4-4v-5c0-11-1-18-2-21-1-4-3-6-4-7l-6-2c-5 0-8 3-10 8l-2 8-1 19" fill="#ffd800" fill-rule="nonzero"/>
</svg>
